<svg width="16" height="20" viewBox="0 0 16 20" fill="none" xmlns="http://www.w3.org/2000/svg">
<g clip-path="url(#clip0_2_614)">
<path d="M6.14639 10.0046H4.92688V8.78505H6.14639V10.0046ZM11.0244 10.0046H9.80492V8.78505H11.0244V10.0046ZM15.9025 8.78505V11.2241H14.683V14.2729C14.683 14.5269 14.6353 14.7651 14.5401 14.9874C14.4448 15.2097 14.3146 15.4034 14.1494 15.5686C13.9843 15.7337 13.7906 15.8639 13.5683 15.9592C13.346 16.0545 13.1078 16.1021 12.8537 16.1021H10.3385L6.14639 19.6844V16.1021H3.09761C2.84354 16.1021 2.60536 16.0545 2.38305 15.9592C2.16074 15.8639 1.96702 15.7337 1.80188 15.5686C1.63673 15.4034 1.50653 15.2097 1.41125 14.9874C1.31598 14.7651 1.26834 14.5269 1.26834 14.2729V11.2241H0.0488281V8.78505H1.26834V6.95578C1.26834 6.70171 1.31598 6.46353 1.41125 6.24122C1.50653 6.01891 1.63673 5.82519 1.80188 5.66005C1.96702 5.4949 2.16074 5.36469 2.38305 5.26942C2.60536 5.17415 2.84354 5.12651 3.09761 5.12651H7.3659V3.13527C7.1817 3.0273 7.03562 2.87803 6.92764 2.68748C6.81966 2.49694 6.7625 2.29368 6.75614 2.07773C6.75614 1.90623 6.7879 1.74744 6.85142 1.60136C6.91494 1.45527 7.00068 1.32824 7.10866 1.22026C7.21664 1.11228 7.34685 1.02336 7.49928 0.95349C7.65172 0.883622 7.81051 0.851864 7.97566 0.858216C8.14715 0.858216 8.30594 0.889974 8.45203 0.95349C8.59812 1.01701 8.72515 1.10275 8.83313 1.21073C8.9411 1.31871 9.03003 1.44892 9.09989 1.60136C9.16976 1.7538 9.20152 1.91259 9.19517 2.07773C9.19517 2.29368 9.14118 2.49694 9.0332 2.68748C8.92523 2.87803 8.77596 3.0273 8.58541 3.13527V5.12651H12.8537C13.1078 5.12651 13.346 5.17415 13.5683 5.26942C13.7906 5.36469 13.9843 5.4949 14.1494 5.66005C14.3146 5.82519 14.4448 6.01891 14.5401 6.24122C14.6353 6.46353 14.683 6.70171 14.683 6.95578V8.78505H15.9025ZM13.4635 6.95578C13.4635 6.79063 13.4031 6.64772 13.2824 6.52704C13.1618 6.40636 13.0188 6.34602 12.8537 6.34602H3.09761C2.93247 6.34602 2.78955 6.40636 2.66887 6.52704C2.54819 6.64772 2.48785 6.79063 2.48785 6.95578V14.2729C2.48785 14.438 2.54819 14.5809 2.66887 14.7016C2.78955 14.8223 2.93247 14.8826 3.09761 14.8826H7.3659V17.0358L9.88114 14.8826H12.8537C13.0188 14.8826 13.1618 14.8223 13.2824 14.7016C13.4031 14.5809 13.4635 14.438 13.4635 14.2729V6.95578ZM5.35561 11.3575C5.70495 11.7068 6.1051 11.9736 6.55607 12.1578C7.00703 12.342 7.48023 12.4372 7.97566 12.4436C8.47108 12.4436 8.94428 12.3515 9.39525 12.1673C9.84621 11.9831 10.2464 11.7131 10.5957 11.3575L11.4532 12.2245C10.9895 12.6881 10.4591 13.0438 9.86209 13.2915C9.26504 13.5392 8.63623 13.6631 7.97566 13.6631C7.32144 13.6631 6.6958 13.5392 6.09875 13.2915C5.5017 13.0438 4.96816 12.6881 4.49814 12.2245L5.35561 11.3575Z" fill="#373266"/>
</g>
<defs>
<clipPath id="clip0_2_614">
<rect width="16" height="19.122" fill="white" transform="translate(0 0.638672)"/>
</clipPath>
</defs>
</svg>
