<svg width="14" height="13" viewBox="0 0 14 13" fill="none" xmlns="http://www.w3.org/2000/svg">
<path d="M13.5 6.21563C13.5 7.11563 12.7969 7.59375 11.8125 7.59375H8.97188C9.16875 8.35313 9.28125 9.08437 9.28125 9.70312C9.28125 12.15 8.60625 12.6562 8.01562 12.6562C7.62188 12.6562 7.34063 12.6281 6.94688 12.375C6.83438 12.3187 6.77813 12.2063 6.75 12.0938L6.32812 9.81562C5.87812 8.60625 4.725 7.56562 3.79688 6.8625V0.84375C4.10625 0.84375 4.5 0.675003 4.86562 0.478128C5.31562 0.253128 5.79375 0.0281267 6.32812 0.0281267H10.35C11.1937 0.0281267 11.8125 0.703127 11.8125 1.29375C11.8125 1.40625 11.8125 1.51875 11.7844 1.60313C12.3187 1.8 12.6562 2.25 12.6562 2.75625C12.6562 3.00937 12.6 3.23438 12.5156 3.40313C12.825 3.62813 13.1625 3.99375 13.1625 4.44375C13.1625 4.66875 13.05 4.95 12.8812 5.14687C13.2469 5.42812 13.5 5.82188 13.5 6.21563ZM12.6281 6.21563C12.6281 5.68125 12.0656 5.625 11.9812 5.37188C11.8969 5.09063 12.3187 4.97812 12.3187 4.47187C12.3187 3.9375 11.6719 3.9375 11.5875 3.68438C11.475 3.375 11.7844 3.2625 11.7844 2.75625C11.7844 2.72812 11.7844 2.7 11.7844 2.67188C11.7 2.25 11.0531 2.22187 10.9406 2.05312C10.8281 1.85625 10.9688 1.74375 10.9688 1.29375C10.9688 1.04063 10.6875 0.871877 10.35 0.871877H6.32812C6.01875 0.871877 5.625 1.04062 5.25938 1.2375C4.92188 1.40625 4.58438 1.575 4.21875 1.65937V6.13125C5.25937 6.91875 6.60938 8.12813 7.14375 9.59063C7.14375 9.61875 7.14375 9.64687 7.17188 9.64687L7.56563 11.7562C7.70625 11.8125 7.81875 11.8125 8.04375 11.8125C8.12812 11.8125 8.46562 11.3062 8.46562 9.70312C8.46562 9.08437 8.35313 8.38125 8.12813 7.59375H8.01562C7.79063 7.59375 7.59375 7.39687 7.59375 7.17188C7.59375 6.94688 7.79063 6.75 8.01562 6.75H11.8125C12.2344 6.75 12.6281 6.55313 12.6281 6.21563Z" fill="#F44336"/>
<path d="M12.6281 6.21563C12.6281 5.68125 12.0656 5.625 11.9812 5.37188C11.8969 5.09063 12.3187 4.97812 12.3187 4.47187C12.3187 3.9375 11.6719 3.9375 11.5875 3.68438C11.475 3.375 11.7844 3.2625 11.7844 2.75625V2.67188C11.7 2.25 11.0531 2.22187 10.9406 2.05312C10.8281 1.85625 10.9688 1.74375 10.9688 1.29375C10.9688 1.04063 10.6875 0.871877 10.35 0.871877H6.32812C6.01875 0.871877 5.625 1.04062 5.25938 1.2375C4.92188 1.40625 4.58438 1.575 4.21875 1.65937V6.13125C5.25937 6.91875 6.60938 8.12813 7.14375 9.59063C7.14375 9.61875 7.14375 9.64687 7.17188 9.64687L7.56563 11.7562C7.70625 11.8125 7.81875 11.8125 8.04375 11.8125C8.12812 11.8125 8.46562 11.3062 8.46562 9.70312C8.46562 9.08437 8.35313 8.38125 8.12813 7.59375H8.01562C7.79063 7.59375 7.59375 7.39687 7.59375 7.17188C7.59375 6.94688 7.79063 6.75 8.01562 6.75H11.8125C12.2344 6.75 12.6281 6.55313 12.6281 6.21563Z" fill="#F44336"/>
<path d="M3.375 0H0.84375C0.365625 0 0 0.365625 0 0.84375V6.75C0 7.22813 0.365625 7.59375 0.84375 7.59375H3.375C3.85313 7.59375 4.21875 7.22813 4.21875 6.75V0.84375C4.21875 0.365625 3.85313 0 3.375 0ZM0.84375 6.75V0.84375H3.375V6.75H0.84375Z" fill="#F44336"/>
</svg>
