<svg width="23" height="25" viewBox="0 0 23 25" fill="none" xmlns="http://www.w3.org/2000/svg">
<path d="M22.8349 17.9711V13.7426L22.3794 13.4569L11.4459 19.4569L1.08196 13.7426L1.08196 11.2854L11.4459 16.9426L22.8919 10.714V6.54256L22.4363 6.25685L11.4459 12.314L1.48057 6.82828L11.4459 1.34256L19.4752 5.74256L20.1016 5.39971V4.94256L11.4459 0.199707L0 6.42828L0 7.05685L11.4459 13.3426L21.8099 7.62828V10.1426L11.4459 15.8569L0.45556 9.79971L0 10.0854L0 14.314L11.4459 20.5426L21.8099 14.8854V17.3426L11.4459 23.0569L0.45556 17.0569L0 17.3426L0 17.9711L11.4459 24.1997L22.8349 17.9711Z" fill="#FF3621"/>
</svg>
