<svg width="18" height="18" viewBox="0 0 18 18" fill="none" xmlns="http://www.w3.org/2000/svg">
<path d="M15.75 9.1125C15.75 8.2125 15.0469 7.73438 14.0625 7.73438H11.2219C11.4188 6.975 11.5312 6.24375 11.5312 5.625C11.5312 3.17813 10.8562 2.67188 10.2656 2.67188C9.87188 2.67188 9.59063 2.7 9.19688 2.95312C9.08438 3.00938 9.02813 3.12187 9 3.23438L8.57812 5.5125C8.12812 6.72188 6.975 7.7625 6.04688 8.46563V14.4844C6.35625 14.4844 6.75 14.6531 7.11562 14.85C7.56562 15.075 8.04375 15.3 8.57812 15.3H12.6C13.4437 15.3 14.0625 14.625 14.0625 14.0344C14.0625 13.9219 14.0625 13.8094 14.0344 13.725C14.5687 13.5281 14.9062 13.0781 14.9062 12.5719C14.9062 12.3188 14.85 12.0937 14.7656 11.925C15.075 11.7 15.4125 11.3344 15.4125 10.8844C15.4125 10.6594 15.3 10.3781 15.1312 10.1813C15.4969 9.9 15.75 9.50625 15.75 9.1125ZM14.8781 9.1125C14.8781 9.64687 14.3156 9.70312 14.2312 9.95625C14.1469 10.2375 14.5687 10.35 14.5687 10.8563C14.5687 11.3906 13.9219 11.3906 13.8375 11.6437C13.725 11.9531 14.0344 12.0656 14.0344 12.5719C14.0344 12.6 14.0344 12.6281 14.0344 12.6562C13.95 13.0781 13.3031 13.1063 13.1906 13.275C13.0781 13.4719 13.2188 13.5844 13.2188 14.0344C13.2188 14.2875 12.9375 14.4562 12.6 14.4562H8.57812C8.26875 14.4562 7.875 14.2875 7.50938 14.0906C7.17188 13.9219 6.83437 13.7531 6.46875 13.6688V9.19688C7.50937 8.40938 8.85938 7.2 9.39375 5.7375C9.39375 5.70937 9.39375 5.68125 9.42188 5.68125L9.81563 3.57188C9.95625 3.51563 10.0687 3.51562 10.2937 3.51562C10.3781 3.51562 10.7156 4.02188 10.7156 5.625C10.7156 6.24375 10.6031 6.94688 10.3781 7.73438H10.2656C10.0406 7.73438 9.84375 7.93125 9.84375 8.15625C9.84375 8.38125 10.0406 8.57812 10.2656 8.57812H14.0625C14.4844 8.57812 14.8781 8.775 14.8781 9.1125Z" fill="#4B4B4B"/>
<path d="M5.625 15.3281H3.09375C2.61562 15.3281 2.25 14.9625 2.25 14.4844V8.57812C2.25 8.1 2.61562 7.73438 3.09375 7.73438H5.625C6.10313 7.73438 6.46875 8.1 6.46875 8.57812V14.4844C6.46875 14.9625 6.10313 15.3281 5.625 15.3281ZM3.09375 8.57812V14.4844H5.625V8.57812H3.09375Z" fill="#4B4B4B"/>
</svg>
