<svg width="20" height="21" viewBox="0 0 20 21" fill="none" xmlns="http://www.w3.org/2000/svg">
<g clip-path="url(#clip0_14_848)">
<path d="M17.7778 20.1997H2.22222C0.995 20.1997 0 19.2047 0 17.9775V2.42193C0 1.19471 0.995 0.199707 2.22222 0.199707H17.7778C19.005 0.199707 20 1.19471 20 2.42193V17.9775C20 19.2047 19.005 20.1997 17.7778 20.1997Z" fill="#E53935"/>
<path d="M16.0226 11.7547C15.0826 10.7786 12.5149 11.1764 11.9004 11.2486C10.9965 10.3808 10.3815 9.33196 10.1649 8.97029C10.4904 7.99418 10.7071 7.01751 10.7432 5.96918C10.7432 5.06529 10.3815 4.08862 9.3693 4.08862C9.00764 4.08862 8.68208 4.30585 8.50152 4.59473C8.06764 5.35418 8.24819 6.87307 8.93541 8.42751C8.53764 9.54862 8.17597 10.6331 7.16375 12.5497C6.11486 12.9836 3.9093 13.9964 3.72875 15.0808C3.65652 15.4064 3.76486 15.732 4.01819 15.9847C4.27097 16.2025 4.59597 16.3108 4.92152 16.3108C6.2593 16.3108 7.56097 14.4664 8.46541 12.912C9.22486 12.6586 10.4182 12.297 11.6115 12.0803C13.0215 13.3097 14.251 13.4903 14.9021 13.4903C15.7699 13.4903 16.0954 13.1286 16.2037 12.8031C16.3843 12.442 16.276 12.0442 16.0226 11.7547ZM15.1187 12.3692C15.0826 12.6225 14.7571 12.8753 14.1787 12.7308C13.4915 12.5503 12.8771 12.2247 12.3343 11.7908C12.8043 11.7186 13.8532 11.6103 14.6126 11.7547C14.9021 11.827 15.191 12.0075 15.1187 12.3692ZM9.07986 4.92029C9.15208 4.81196 9.26041 4.73973 9.3693 4.73973C9.69486 4.73973 9.76708 5.13751 9.76708 5.46307C9.73097 6.22251 9.58652 6.98196 9.33319 7.70529C8.79097 6.25807 8.8993 5.24585 9.07986 4.92029ZM9.00764 11.9353C9.29708 11.357 9.69486 10.3442 9.8393 9.91029C10.1649 10.4525 10.7071 11.1036 10.9965 11.3931C10.9965 11.4292 9.87541 11.6464 9.00764 11.9353ZM6.8743 13.382C6.04264 14.7558 5.17486 15.6242 4.70486 15.6242C4.63264 15.6242 4.56041 15.5881 4.48764 15.552C4.3793 15.4797 4.34319 15.3714 4.3793 15.2264C4.48764 14.7197 5.42764 14.0325 6.8743 13.382Z" fill="white"/>
</g>
<defs>
<clipPath id="clip0_14_848">
<rect width="20" height="20" fill="white" transform="translate(0 0.199707)"/>
</clipPath>
</defs>
</svg>
