<svg width="24" height="25" viewBox="0 0 24 25" fill="none" xmlns="http://www.w3.org/2000/svg">
<rect y="0.199707" width="24" height="24" rx="12" fill="white"/>
<path fill-rule="evenodd" clip-rule="evenodd" d="M15.1111 13.0496C16.1132 13.0497 17.0767 13.4366 17.8005 14.1297C18.5243 14.8228 18.9526 15.7686 18.9961 16.7698L19 16.9385V18.4941C18.9998 18.6923 18.9239 18.883 18.7878 19.0272C18.6517 19.1713 18.4657 19.258 18.2678 19.2697C18.0699 19.2813 17.875 19.2169 17.723 19.0897C17.571 18.9624 17.4733 18.7819 17.4499 18.5851L17.4444 18.4941V16.9385C17.4445 16.3434 17.2171 15.7707 16.8088 15.3377C16.4005 14.9046 15.8421 14.644 15.248 14.6091L15.1111 14.6052H8.88889C8.29373 14.6052 7.72104 14.8326 7.28802 15.2409C6.85499 15.6492 6.59436 16.2075 6.55944 16.8016L6.55556 16.9385V18.4941C6.55534 18.6923 6.47943 18.883 6.34334 19.0272C6.20725 19.1713 6.02126 19.258 5.82336 19.2697C5.62546 19.2813 5.43059 19.2169 5.27857 19.0897C5.12656 18.9624 5.02886 18.7819 5.00544 18.5851L5 18.4941V16.9385C5.00006 15.9364 5.38698 14.973 6.08007 14.2491C6.77316 13.5253 7.71892 13.097 8.72011 13.0535L8.88889 13.0496H15.1111ZM12 3.71631C13.0314 3.71631 14.0206 4.12603 14.7499 4.85534C15.4792 5.58465 15.8889 6.5738 15.8889 7.6052C15.8889 8.6366 15.4792 9.62575 14.7499 10.3551C14.0206 11.0844 13.0314 11.4941 12 11.4941C10.9686 11.4941 9.97945 11.0844 9.25014 10.3551C8.52083 9.62575 8.11111 8.6366 8.11111 7.6052C8.11111 6.5738 8.52083 5.58465 9.25014 4.85534C9.97945 4.12603 10.9686 3.71631 12 3.71631ZM12 5.27186C11.6936 5.27186 11.3902 5.33222 11.1071 5.44948C10.824 5.56674 10.5668 5.73861 10.3501 5.95528C10.1334 6.17195 9.96154 6.42918 9.84428 6.71227C9.72702 6.99536 9.66667 7.29878 9.66667 7.6052C9.66667 7.91162 9.72702 8.21503 9.84428 8.49813C9.96154 8.78122 10.1334 9.03844 10.3501 9.25511C10.5668 9.47178 10.824 9.64366 11.1071 9.76092C11.3902 9.87818 11.6936 9.93853 12 9.93853C12.6188 9.93853 13.2123 9.6927 13.6499 9.25511C14.0875 8.81753 14.3333 8.22404 14.3333 7.6052C14.3333 6.98636 14.0875 6.39287 13.6499 5.95528C13.2123 5.5177 12.6188 5.27186 12 5.27186Z" fill="#373266"/>
</svg>
