<svg width="25" height="25" viewBox="0 0 25 25" fill="none" xmlns="http://www.w3.org/2000/svg">
<g clip-path="url(#clip0_314_1823)">
<path d="M3.8027 3.15564L21.9778 3.15564C22.2456 3.15564 22.5024 3.26202 22.6918 3.45138C22.8811 3.64074 22.9875 3.89757 22.9875 4.16537V20.321C22.9875 20.5888 22.8811 20.8456 22.6918 21.035C22.5024 21.2243 22.2456 21.3307 21.9778 21.3307H3.8027C3.5349 21.3307 3.27807 21.2243 3.08871 21.035C2.89935 20.8456 2.79297 20.5888 2.79297 20.321L2.79297 4.16537C2.79297 3.89757 2.89935 3.64074 3.08871 3.45138C3.27807 3.26202 3.5349 3.15564 3.8027 3.15564ZM20.968 7.43486L12.9629 14.6039L4.81242 7.41265L4.81242 19.3113H20.968V7.43486ZM5.32839 5.17509L12.9518 11.9019L20.4652 5.17509L5.32839 5.17509Z" fill="white"/>
</g>
<defs>
<clipPath id="clip0_314_1823">
<rect width="24.2334" height="24.2334" fill="white" transform="translate(0.773926 0.126465)"/>
</clipPath>
</defs>
</svg>
