<svg width="698" height="550" viewBox="0 0 698 550" fill="none" xmlns="http://www.w3.org/2000/svg">
<path d="M286.626 16.6718H41.4219V425.3H286.626V16.6718Z" fill="white" stroke="#231F20" stroke-miterlimit="10"/>
<path d="M55.0734 36.5168L51.9727 425.163H269.262V38.0632L55.0734 36.5168Z" fill="white" stroke="#231F20" stroke-miterlimit="10"/>
<path d="M41.4299 16.6718H36.2109V425.525H41.4299V16.6718Z" fill="#E3E4E5" stroke="#231F20" stroke-miterlimit="10"/>
<path d="M269.036 115.1H54.437V122.711H269.036V115.1Z" fill="white" stroke="#231F20" stroke-miterlimit="10"/>
<path d="M269.197 250.294H53.374V258.284H269.197V250.294Z" fill="#E3E4E5" stroke="#231F20" stroke-miterlimit="10"/>
<path d="M269.205 386.479H52.2866V405.89H269.205V386.479Z" fill="#E3E4E5" stroke="#231F20" stroke-miterlimit="10"/>
<path d="M260.241 263.036H175.658V373.488H260.241V263.036Z" fill="white" stroke="#231F20" stroke-miterlimit="10"/>
<path d="M163.335 263.036H78.752V373.488H163.335V263.036Z" fill="white" stroke="#231F20" stroke-miterlimit="10"/>
<path d="M169.835 386.214V258.074" stroke="#231F20" stroke-linecap="round" stroke-linejoin="round"/>
<path d="M83.818 211.305L83.8985 211.257L85.3804 224.401L108.044 425.3L51.9805 425.163L53.696 209.404L53.7765 200.223L55.0732 36.5168H178.976C178.976 36.5168 178.976 154.395 83.818 211.305Z" fill="#5CA0C3" stroke="#231F20" stroke-miterlimit="10"/>
<path d="M92.0656 214.253L87.4828 225.399L85.3808 224.401L53.6963 209.404L53.7688 200.223L83.8988 211.257L92.0656 214.253Z" fill="white" stroke="#231F20" stroke-miterlimit="10"/>
<path d="M87.6114 37.2659C87.6114 37.2659 96.7527 146.671 66.2764 204.572" stroke="#231F20" stroke-linecap="round" stroke-linejoin="round"/>
<path d="M145.512 37.2659C145.512 37.2659 129.057 158.463 76.6338 208.438" stroke="#231F20" stroke-linecap="round" stroke-linejoin="round"/>
<path d="M69.9331 217.184L81.5148 424.929" stroke="#231F20" stroke-linecap="round" stroke-linejoin="round"/>
<path d="M163.682 364.347H175.271" stroke="#231F20" stroke-linecap="round" stroke-linejoin="round"/>
<path d="M163.682 272.354H175.271" stroke="#231F20" stroke-linecap="round" stroke-linejoin="round"/>
<path d="M260.749 364.347H269.439" stroke="#231F20" stroke-linecap="round" stroke-linejoin="round"/>
<path d="M260.749 272.354H269.439" stroke="#231F20" stroke-linecap="round" stroke-linejoin="round"/>
<path d="M281.093 283.404L279.772 285.386L281.439 288.47L284.065 284.725L282.083 283.074L281.093 283.404Z" fill="white" stroke="#231F20" stroke-miterlimit="10"/>
<path d="M402.926 289.018C402.926 289.018 435.319 281.753 442.584 297.611L466.045 367.399L422.771 376.202L424.688 412.18L423.069 419.823C423.069 419.823 386.778 430.366 375.212 431.356L364.315 432.677C364.315 432.677 346.814 434.328 340.87 435.649C340.87 435.649 325.954 437.075 312.938 434.377L296.218 398.681L293.319 369.928L267.232 364.645C267.232 364.645 272.185 297.281 295.3 294.97L306.689 294.14C308.098 294.035 309.515 294.285 310.804 294.865L336.907 306.535C336.907 306.535 338.888 320.735 360.352 323.706C360.352 323.706 368.181 324.464 375.663 320.944L402.926 289.026V289.018Z" fill="#F7C27E" stroke="#231F20" stroke-miterlimit="10"/>
<path d="M310.885 240.074L280.457 282.961L284.395 285.386L313.132 243.779L310.885 240.074Z" fill="#5CA0C3" stroke="#231F20" stroke-miterlimit="10"/>
<path d="M376.839 265.846C376.855 265.428 376.863 265.009 376.855 264.582L376.839 265.846Z" stroke="#ED1C24" stroke-miterlimit="10"/>
<path d="M373.891 234.863L339.549 214.059L330.963 213.069C318.085 212.738 314.122 226.938 314.122 226.938C312.471 233.212 311.956 239.454 311.956 239.454C311.956 239.454 311.497 241.749 312.987 244.801C312.987 244.801 313.277 245.373 313.591 246.38C314.13 248.112 314.751 251.116 314.122 254.676C314.122 254.676 311.811 264.582 315.113 269.205L324.754 284.878C325.301 285.78 325.696 286.763 325.93 287.794C326.663 291.031 329.336 298.506 338.228 295.63C338.228 295.63 375.671 287.383 376.839 265.903V265.847L376.863 264.582L373.891 234.863Z" fill="#FAA27F" stroke="#231F20" stroke-miterlimit="10"/>
<path d="M312.278 242.595C312.278 242.595 301.905 227.928 316.434 208.776C316.434 208.776 330.673 191.758 344.462 193.667C345.364 193.795 346.282 193.667 347.12 193.296C350.333 191.887 359.007 188.939 366.965 193.618C367.609 193.997 368.31 194.246 369.051 194.319C373.867 194.802 393.06 198.322 397.675 223.966L402.298 283.074C402.298 283.074 407.581 316.095 399.656 347.466C399.656 347.466 397.675 409.876 396.354 427.056C396.354 427.056 381.824 431.018 375.22 431.348L369.937 394.364C369.937 394.364 369.937 379.835 372.909 365.636C372.909 365.636 374.23 358.701 372.909 354.408C372.909 354.408 368.286 362.003 371.258 365.966C371.258 365.966 363.002 365.305 367.295 350.446C367.295 350.446 376.541 322.378 376.871 312.141L376.541 284.403L376.992 266.974L374.882 246.573C374.584 243.674 373.319 240.96 371.282 238.874C367.295 234.79 359.885 228.138 351.115 224.634C351.115 224.634 360.36 232.229 365.644 249.73C365.644 249.73 349.488 223.78 335.683 216.459C331.825 214.414 327.178 214.365 323.368 216.5C318.472 219.238 312.906 226.011 312.294 242.603L312.278 242.595Z" fill="#231F20" stroke="#231F20" stroke-miterlimit="10"/>
<path d="M328.644 434.981C322.37 431.348 321.709 417.81 321.709 417.81C320.388 428.707 323.03 437.292 323.03 437.292L290.669 441.585L303.547 338.55C302.226 325.672 308.501 296.283 308.501 296.283L313.365 246.42C313.365 246.42 313.438 246.404 313.583 246.38C314.122 248.112 314.742 251.116 314.114 254.676C314.114 254.676 311.803 264.582 315.105 269.205L324.745 284.878C325.293 285.78 325.688 286.763 325.921 287.794C326.654 291.031 329.328 298.506 338.22 295.63C335.908 312.801 338.22 336.907 338.22 336.907C340.201 356.059 328.313 395.025 328.313 395.025C320.469 421.168 328.474 434.699 328.644 434.981Z" fill="#231F20" stroke="#231F20" stroke-miterlimit="10"/>
<path d="M376.863 312.141L375.663 320.936C365.305 325.35 357.88 323.336 357.88 323.336C340.87 320.662 337.221 308.186 337.221 308.186L338.228 295.622C338.228 295.622 375.671 287.375 376.839 265.895L376.533 284.395L376.863 312.133V312.141Z" fill="#FAA27F" stroke="#231F20" stroke-miterlimit="10"/>
<path d="M294.785 383.427C294.785 383.427 289.348 395.355 287.037 407.573C287.037 407.573 284.065 433.33 273.498 438.283C273.498 438.283 267.224 455.454 248.402 445.878C248.402 445.878 241.467 443.236 240.146 430.358C240.146 430.358 233.872 415.168 238.495 398.987C238.495 398.987 245.76 373.891 248.402 356.059L250.713 338.228C250.713 338.228 250.496 333.21 251.656 329.207C252.179 327.403 252.348 325.511 252.203 323.634C252.139 322.861 252.115 321.959 252.155 320.968C252.227 319.22 251.994 317.481 251.511 315.798C249.94 310.353 246.743 299.255 246.743 299.255C246.743 299.255 245.752 294.632 251.366 290.669L258.63 284.725C258.63 284.725 260.942 282.414 263.253 284.725L266.555 281.753C266.555 281.753 268.207 280.102 270.848 281.423C270.848 281.423 272.83 278.451 275.801 280.102L286.956 264.075C287.746 262.867 289.332 262.464 290.605 263.14C292.054 263.914 292.522 265.766 291.62 267.135L279.772 284.065L282.084 287.367L287.456 279.667C288.301 278.532 289.719 277.936 291.104 278.226C292.095 278.435 293.037 279.095 293.271 280.755C293.303 280.956 293.238 281.157 293.093 281.302C292.361 282.059 289.952 284.838 289.421 289.139C289.332 289.88 289.219 290.613 289.074 291.337L286.368 304.868C286.368 304.868 284.717 310.152 284.057 312.793C284.057 312.793 283.066 317.086 279.104 322.7C279.104 322.7 275.141 329.634 273.49 338.88C273.49 338.88 271.323 358.741 271.251 365.322L293.303 369.92L294.777 383.419L294.785 383.427Z" fill="#FAA27F" stroke="#231F20" stroke-miterlimit="10"/>
<path d="M271.259 365.33C271.259 365.33 271.187 381.486 273.498 394.694C273.498 394.694 278.451 409.884 275.149 426.065" stroke="#231F20" stroke-linecap="round" stroke-linejoin="round"/>
<path d="M678.051 517.985H14.9482V533.175H678.051V517.985Z" fill="#E3E4E5" stroke="#231F20" stroke-miterlimit="10"/>
<path d="M15.2303 517.655L83.9632 437.743L632.481 445.008L677.882 517.711C677.954 517.832 677.874 517.993 677.729 517.993H15.3833C15.2142 517.993 15.1175 517.792 15.2303 517.663V517.655Z" fill="white" stroke="#231F20" stroke-miterlimit="10"/>
<path d="M422.763 376.203L418.817 342.633C418.817 342.633 414.854 318.528 423.77 307.631" stroke="#231F20" stroke-linecap="round" stroke-linejoin="round"/>
<path d="M385.175 255.638C385.857 250.685 383.791 246.309 380.561 245.864C377.331 245.419 374.16 249.074 373.478 254.027C372.796 258.98 374.862 263.356 378.092 263.8C381.322 264.245 384.493 260.59 385.175 255.638Z" fill="#FAA27F" stroke="#231F20" stroke-miterlimit="10"/>
<path d="M326.3 244.117C326.3 244.117 329.602 246.759 327.951 251.051L322.668 262.939C322.668 262.939 322.338 267.562 328.942 268.553" stroke="#231F20" stroke-linecap="round" stroke-linejoin="round"/>
<path d="M275.81 280.102C275.81 280.102 281.093 284.395 283.404 290.009C283.404 290.009 287.367 300.906 281.093 301.236C281.093 301.236 277.879 301.445 277.34 294.406" fill="#FAA27F"/>
<path d="M275.81 280.102C275.81 280.102 281.093 284.395 283.404 290.009C283.404 290.009 287.367 300.906 281.093 301.236C281.093 301.236 277.879 301.445 277.34 294.406" stroke="#231F20" stroke-linecap="round" stroke-linejoin="round"/>
<path d="M269.882 292.763L270.856 293.971L271.758 301.784C271.871 302.782 272.467 303.676 273.369 304.111C274.014 304.417 274.924 304.627 276.188 304.562C276.349 304.554 276.478 304.425 276.494 304.264L277.34 294.406C277.42 293.472 277.275 292.529 276.913 291.66L275.093 287.294C274.344 285.49 273.289 283.823 271.936 282.414C271.565 282.027 271.195 281.673 270.864 281.431" fill="#FAA27F"/>
<path d="M269.882 292.763L270.856 293.971L271.758 301.784C271.871 302.782 272.467 303.676 273.369 304.111C274.014 304.417 274.924 304.627 276.188 304.562C276.349 304.554 276.478 304.425 276.494 304.264L277.34 294.406C277.42 293.472 277.275 292.529 276.913 291.66L275.093 287.294C274.344 285.49 273.289 283.823 271.936 282.414C271.565 282.027 271.195 281.673 270.864 281.431" stroke="#231F20" stroke-linecap="round" stroke-linejoin="round"/>
<path d="M263.261 284.725L268.134 288.825C269.036 289.582 269.624 290.661 269.769 291.829L270.864 300.575C270.864 300.575 265.581 302.557 264.26 293.311L261.618 291.99C261.618 291.99 259.967 293.311 256.995 292.98" fill="#FAA27F"/>
<path d="M263.261 284.725L268.134 288.825C269.036 289.582 269.624 290.661 269.769 291.829L270.864 300.575C270.864 300.575 265.581 302.557 264.26 293.311L261.618 291.99C261.618 291.99 259.967 293.311 256.995 292.98" stroke="#231F20" stroke-linecap="round" stroke-linejoin="round"/>
<path d="M293.311 369.928C293.311 369.928 300.56 327.878 284.065 312.801" stroke="#231F20" stroke-linecap="round" stroke-linejoin="round"/>
<path d="M161.547 471.312V467.35L225.617 474.614V479.237L161.547 471.312Z" fill="#5CA0C3" stroke="#231F20" stroke-miterlimit="10"/>
<path d="M225.617 479.237V474.614L289.678 482.54V487.163L225.617 479.237Z" fill="#5CA0C3" stroke="#231F20" stroke-miterlimit="10"/>
<path d="M161.781 467.269L215.05 449.18C215.05 449.18 266.233 439.604 274.158 456.114L331.882 465.352C331.882 465.352 331.906 465.384 331.882 465.384L289.67 482.531L161.781 467.366C161.725 467.366 161.716 467.277 161.773 467.261L161.781 467.269Z" fill="white" stroke="#231F20" stroke-miterlimit="10"/>
<path d="M225.617 474.945C225.617 474.945 227.517 470.338 219.02 467.261C217.402 466.673 215.718 466.278 214.011 466.029C208.139 465.167 189.784 463.21 162.522 467.164C162.409 467.18 162.409 467.35 162.522 467.358L225.609 474.945H225.617Z" fill="#E3E4E5" stroke="#231F20" stroke-miterlimit="10"/>
<path d="M225.617 474.945C225.617 474.945 243.448 466.029 289.678 482.54L225.617 474.945Z" fill="#E3E4E5" stroke="#231F20" stroke-miterlimit="10"/>
<path d="M225.617 474.945L274.158 456.122" stroke="#231F20" stroke-linecap="round" stroke-linejoin="round"/>
<path d="M331.954 465.368L331.97 469.114L289.679 487.163V482.54L331.954 465.368Z" fill="#5CA0C3" stroke="#231F20" stroke-miterlimit="10"/>
<path d="M299.255 438.943L290.009 443.236L275.479 455.124C275.479 455.124 275.149 457.765 280.432 457.105C280.432 457.105 283.404 460.407 286.706 458.096L301.236 447.529C301.236 447.529 302.557 446.538 304.868 446.868L289.018 458.096C289.018 458.096 290.339 461.728 296.943 459.747L312.133 451.491C312.133 451.491 316.096 449.51 319.067 451.822C319.067 451.822 317.086 453.142 312.463 455.454C312.463 455.454 302.557 458.096 305.198 460.737C305.198 460.737 306.189 463.379 313.784 461.398L324.681 458.096C324.681 458.096 326.662 457.105 330.295 458.096C330.295 458.096 341.691 460.947 352.089 455.486C352.548 455.245 353.063 455.132 353.579 455.148C359.362 455.269 394.123 455.833 419.783 452.82C419.783 452.82 444.96 451.193 459.811 448.423C465.062 447.44 468.679 442.6 468.115 437.284C466.343 420.645 463.725 394.477 460.729 368.608L422.755 376.203L425.066 419.13C425.066 419.13 411.858 423.093 396.338 427.056C396.338 427.056 383.129 431.018 364.307 432.669C364.307 432.669 349.447 433.99 340.862 435.641C337.865 435.867 334.668 435.996 331.285 435.971C324.472 435.923 318.302 435.271 312.93 434.369C312.624 434.353 312.246 434.369 311.819 434.425C311.456 434.481 311.094 434.578 310.74 434.707L299.247 438.943H299.255Z" fill="#FAA27F" stroke="#231F20" stroke-miterlimit="10"/>
<path d="M280.433 457.113L294.962 442.584C294.962 442.584 301.566 436.64 312.463 437.63" stroke="#231F20" stroke-linecap="round" stroke-linejoin="round"/>
<path d="M303.547 447.867L309.531 443.615C310.152 443.155 310.893 442.882 311.658 442.801L317.416 442.253" stroke="#231F20" stroke-linecap="round" stroke-linejoin="round"/>
<path d="M514.184 414.644C514.184 414.644 509.432 416.344 509.432 422.787H600.765V414.644H514.184Z" fill="#231F20" stroke="#231F20" stroke-miterlimit="10"/>
<path d="M619.739 428.336H626.529C626.529 428.336 626.867 409.892 600.732 412.268L600.764 414.644C600.764 414.644 615.108 414.548 616.236 423.077L619.739 423.125V428.328V428.336Z" fill="#231F20" stroke="#231F20" stroke-miterlimit="10"/>
<path d="M470.402 463.516V443.494H609.688V456.388L470.402 463.516Z" fill="#231F20" stroke="#231F20" stroke-miterlimit="10"/>
<path d="M557.627 385.118C557.627 385.118 539.256 392.029 518.742 414.701L600.764 414.644C600.764 414.644 613.973 397.336 632.972 392.923L557.627 385.118Z" fill="white" stroke="#231F20" stroke-miterlimit="10"/>
<path d="M498.108 446.715H610.615C612.29 446.715 613.127 444.694 611.943 443.51L599.371 430.938H619.732V422.803L453.892 423.133C451.089 423.133 448.584 424.905 447.682 427.555C436.89 459.384 404.891 473.358 404.891 473.358V481.501L447.658 459.779L474.808 459.425V446.715H478.199L480.575 452.313H495.507L498.1 446.715H498.108Z" fill="#5CA0C3" stroke="#231F20" stroke-miterlimit="10"/>
<path d="M473.793 440.779C480.167 440.779 485.334 435.612 485.334 429.238C485.334 422.864 480.167 417.697 473.793 417.697C467.419 417.697 462.251 422.864 462.251 429.238C462.251 435.612 467.419 440.779 473.793 440.779Z" fill="#231F20" stroke="#231F20" stroke-miterlimit="10"/>
<path d="M471.764 441.118C478.138 441.118 483.305 435.95 483.305 429.576C483.305 423.202 478.138 418.035 471.764 418.035C465.389 418.035 460.222 423.202 460.222 429.576C460.222 435.95 465.389 441.118 471.764 441.118Z" fill="#F7C27E" stroke="#231F20" stroke-miterlimit="10"/>
<path d="M400.655 491.52V483.715L447.658 459.787H503.319L509.77 450.621H619.321C619.812 450.621 620.287 450.775 620.69 451.048L626.843 455.333C627.488 455.784 627.874 456.517 627.874 457.306V489.965L400.646 491.52H400.655Z" fill="#E3E4E5" stroke="#231F20" stroke-miterlimit="10"/>
<path d="M101.102 455.72C101.102 455.72 101.948 436.463 99.8294 426.935C99.475 425.332 98.7179 423.842 97.6226 422.61C93.3137 417.761 79.9279 402.982 68.5557 393.446C68.5557 393.446 79.2031 391.231 89.2625 397.296V403.804L91.4854 398.625C91.4854 398.625 103.913 406.027 102.721 426.282L102.133 445.805L101.094 455.72H101.102Z" fill="#56C96E" stroke="#231F20" stroke-miterlimit="10"/>
<path d="M80.0166 471.771C80.0166 481.114 86.7095 489.12 95.9072 490.771C106.41 492.647 116.445 485.648 118.321 475.138C118.523 474.026 118.619 472.899 118.619 471.771C118.619 467.052 116.896 462.493 113.763 458.965L92.8547 458.82L85.0584 458.764C81.8126 462.316 80.0166 466.963 80.0247 471.771H80.0166Z" fill="#5CA0C3" stroke="#231F20" stroke-miterlimit="10"/>
<path d="M103.398 458.893V457.145C103.373 454.842 104.283 452.627 105.926 451.008L135.163 422.271C135.163 422.271 121.1 420.5 114.399 426.097L114.262 433.74L111.943 427.732C111.943 427.732 99.3786 433.056 100.474 458.869L103.398 458.893Z" fill="#56C96E" stroke="#231F20" stroke-miterlimit="10"/>
<path d="M96.5111 458.845L94.9084 445.765C94.7956 444.831 94.3929 443.961 93.7486 443.276C89.5605 438.79 72.9934 421.241 63.377 413.275C63.377 413.275 74.4673 412.236 84.3818 417.27L84.6798 424.22L86.9027 418.897C86.9027 418.897 97.7031 424.961 97.9931 446.095V458.845H96.5111Z" fill="#56C96E" stroke="#231F20" stroke-miterlimit="10"/>
<path d="M5.13867 533.328H692.145" stroke="#231F20" stroke-miterlimit="10"/>
<path d="M421.128 200.698C424.464 200.698 427.168 197.993 427.168 194.657C427.168 191.321 424.464 188.617 421.128 188.617C417.792 188.617 415.087 191.321 415.087 194.657C415.087 197.993 417.792 200.698 421.128 200.698Z" fill="white" stroke="#231F20" stroke-miterlimit="10"/>
<path d="M407.436 219.222C410.328 219.222 412.671 216.878 412.671 213.987C412.671 211.096 410.328 208.752 407.436 208.752C404.545 208.752 402.201 211.096 402.201 213.987C402.201 216.878 404.545 219.222 407.436 219.222Z" fill="white" stroke="#231F20" stroke-miterlimit="10"/>
<path d="M409.265 145.858C408.346 148.532 407.839 151.399 407.839 154.387C407.839 168.844 419.558 180.563 434.015 180.563C439.362 180.563 444.34 178.952 448.48 176.197C454.238 185.54 465.079 191.838 477.506 191.838C493.244 191.838 506.436 181.747 509.98 168.159C512.179 168.892 514.522 169.287 516.971 169.287C529.205 169.287 539.119 159.373 539.119 147.139C539.119 137.723 533.248 129.694 524.968 126.488C526.04 123.782 526.636 120.834 526.636 117.741C526.636 104.621 515.996 93.9821 502.876 93.9821C498.89 93.9821 495.145 94.9647 491.842 96.6963C488.468 87.3859 479.173 80.693 468.244 80.693C457.347 80.693 448.085 87.3375 444.678 96.5997C439.717 93.1767 433.684 91.1632 427.169 91.1632C410.263 91.1632 396.563 104.686 396.563 121.366C396.563 131.449 401.573 140.373 409.265 145.858Z" fill="white" stroke="#231F20" stroke-miterlimit="10"/>
<path d="M507.709 124.185H427.974" stroke="#231F20" stroke-linecap="round" stroke-linejoin="round"/>
<path d="M507.709 133.849H427.974" stroke="#231F20" stroke-linecap="round" stroke-linejoin="round"/>
<path d="M507.709 144.32H427.974" stroke="#231F20" stroke-linecap="round" stroke-linejoin="round"/>
<path d="M507.709 153.984H427.974" stroke="#231F20" stroke-linecap="round" stroke-linejoin="round"/>
<path d="M215.759 457.468C221.203 466.029 218.61 479.511 218.61 479.511L212.642 490.4L204.081 495.329L191.629 497.142L178.92 487.549L179.83 469.009L203.952 457.081L215.751 457.468H215.759Z" fill="white" stroke="#231F20" stroke-miterlimit="10"/>
<path d="M203.96 457.073L211.096 464.209L216.017 473.801L214.986 480.808L211.096 488.58L201.238 492.994L190.348 488.065L181.006 479.769L183.599 472.246L193.957 462.421L202.019 470.434L205.385 478.73L199.683 486.768L191.903 488.846" stroke="#231F20" stroke-linecap="round" stroke-linejoin="round"/>
<path d="M190.349 488.065L194.239 479.511L191.645 470.692L202.019 470.434" stroke="#231F20" stroke-linecap="round" stroke-linejoin="round"/>
<path d="M390.966 480.55L387.108 480.953C386.802 480.985 386.536 481.17 386.399 481.452L383.604 487.267C383.532 487.412 383.508 487.573 383.524 487.734L384.257 495.555C384.273 495.708 384.321 495.853 384.41 495.974L392.931 508.256C393.036 508.409 393.181 508.522 393.358 508.586L398.569 510.479C398.714 510.535 398.875 510.543 399.028 510.519C400.486 510.245 408.451 508.812 413.863 508.514C414.169 508.498 414.443 508.329 414.588 508.063L425.904 487.887C426.121 487.509 426.025 487.026 425.679 486.752L409.168 473.938C408.999 473.801 408.781 473.737 408.564 473.753L393.938 474.727C393.575 474.751 393.261 474.993 393.156 475.339L391.699 479.922C391.594 480.26 391.296 480.494 390.95 480.534L390.966 480.55Z" fill="white" stroke="#231F20" stroke-miterlimit="10"/>
<path d="M391.723 479.938L387.656 490.344L392.843 503.569L398.577 510.487" stroke="#231F20" stroke-linecap="round" stroke-linejoin="round"/>
<path d="M392.4 502.207L403.474 503.569L415.402 495.015L415.144 480.494L400.107 476.604L391.288 488.008L401.662 497.343L407.106 492.937L413.332 485.157L406.067 482.564" stroke="#231F20" stroke-linecap="round" stroke-linejoin="round"/>
<path d="M395.693 486.196L407.106 492.937" stroke="#231F20" stroke-linecap="round" stroke-linejoin="round"/>
<path d="M413.332 485.157L415.096 485.914" stroke="#ED1C24" stroke-width="0.32" stroke-miterlimit="10"/>
<path d="M299.247 491.504L295.872 486.059L318.44 462.203L328.813 469.983L327.517 474.131L328.29 478.021L333.477 479.052L338.663 491.761L336.328 497.472L327.774 503.432L313.511 506.283L294.576 496.175L299.247 491.504Z" fill="white" stroke="#231F20" stroke-miterlimit="10"/>
<path d="M299.247 491.504L306.503 497.206L319.994 500.838L329.586 492.285L328.289 478.021L327.516 474.131L322.064 480.091L324.142 486.832L315.065 491.761L311.69 495.136L300.543 489.426" stroke="#231F20" stroke-linecap="round" stroke-linejoin="round"/>
<path d="M325.696 480.615L326.478 489.426L320.767 497.987L311.69 495.136" stroke="#231F20" stroke-linecap="round" stroke-linejoin="round"/>
<path d="M308.235 503.681L329.586 500.838L334 487.614L328.7 479.833" stroke="#231F20" stroke-linecap="round" stroke-linejoin="round"/>
<path d="M123.041 488.443L129.863 469.677C130.217 468.695 131.055 467.962 132.078 467.736L146.446 464.547C146.664 464.499 146.889 464.474 147.115 464.474H149.7C150.489 464.474 151.246 464.781 151.818 465.328L162.538 475.589C162.925 475.959 163.215 476.427 163.36 476.95C163.931 478.931 165.26 484.022 164.326 485.971C164.221 486.188 164.133 486.406 164.093 486.647C163.851 487.887 162.844 491.745 159.389 492.768C158.431 493.05 157.665 493.759 157.335 494.701L156.667 496.602C156.32 497.593 155.491 498.334 154.468 498.575L142.725 501.297C141.992 501.467 141.219 501.362 140.567 500.999L124.451 492.188C123.122 491.463 122.526 489.877 123.041 488.451V488.443Z" fill="white" stroke="#231F20" stroke-miterlimit="10"/>
<path d="M147.115 464.466L154.557 471.731L160.259 481.581L157.335 494.685" stroke="#231F20" stroke-linecap="round" stroke-linejoin="round"/>
<path d="M154.557 471.731L142.886 470.95L132.513 481.323L134.333 495.064L148.331 497.657L156.634 483.917L145.222 477.691L140.293 481.839L135.106 490.143L142.886 491.697" stroke="#231F20" stroke-linecap="round" stroke-linejoin="round"/>
<path d="M151.448 487.026L140.293 481.839" stroke="#231F20" stroke-linecap="round" stroke-linejoin="round"/>
<path d="M664.423 27.5125H569.563V158.43H664.423V27.5125Z" stroke="#231F20" stroke-linecap="round" stroke-linejoin="round"/>
<path d="M660.259 33.3354H574.274V152.607H660.259V33.3354Z" stroke="#231F20" stroke-linecap="round" stroke-linejoin="round"/>
<path d="M660.002 35.6792C658.898 35.5986 658.334 35.5583 657.215 35.5583C634.696 35.5583 616.438 52.1979 616.438 72.7276C616.438 93.2573 634.696 109.897 657.215 109.897C658.246 109.897 659.261 109.865 660.275 109.792" stroke="#231F20" stroke-linecap="round" stroke-linejoin="round"/>
<path d="M592.131 152.277C592.131 152.277 608.947 120.713 574.001 101.295" stroke="#231F20" stroke-linecap="round" stroke-linejoin="round"/>
<path d="M646.245 152.261C646.245 152.261 612.587 143.482 604.541 95.5205C604.106 92.919 603.865 90.2854 603.752 87.6437C603.285 76.6983 600.538 40.262 584.551 33.1342" stroke="#231F20" stroke-linecap="round" stroke-linejoin="round"/>
<path d="M637.241 77.7131C644.136 77.7131 649.725 74.8572 649.725 71.3343C649.725 67.8114 644.136 64.9556 637.241 64.9556C630.346 64.9556 624.757 67.8114 624.757 71.3343C624.757 74.8572 630.346 77.7131 637.241 77.7131Z" stroke="#231F20" stroke-linecap="round" stroke-linejoin="round"/>
<path d="M637.241 76.0459C639.843 76.0459 641.952 74.8055 641.952 73.2753C641.952 71.7452 639.843 70.5048 637.241 70.5048C634.639 70.5048 632.529 71.7452 632.529 73.2753C632.529 74.8055 634.639 76.0459 637.241 76.0459Z" stroke="#231F20" stroke-linecap="round" stroke-linejoin="round"/>
<path d="M641.123 135.412C648.017 135.412 653.607 132.556 653.607 129.033C653.607 125.51 648.017 122.654 641.123 122.654C634.228 122.654 628.639 125.51 628.639 129.033C628.639 132.556 634.228 135.412 641.123 135.412Z" stroke="#231F20" stroke-linecap="round" stroke-linejoin="round"/>
<path d="M641.123 133.745C643.725 133.745 645.834 132.504 645.834 130.974C645.834 129.444 643.725 128.204 641.123 128.204C638.521 128.204 636.411 129.444 636.411 130.974C636.411 132.504 638.521 133.745 641.123 133.745Z" stroke="#231F20" stroke-linecap="round" stroke-linejoin="round"/>
<path d="M587.87 92.1378C591.393 92.1378 594.249 86.5487 594.249 79.6541C594.249 72.7596 591.393 67.1704 587.87 67.1704C584.347 67.1704 581.491 72.7596 581.491 79.6541C581.491 86.5487 584.347 92.1378 587.87 92.1378Z" stroke="#231F20" stroke-linecap="round" stroke-linejoin="round"/>
<path d="M585.929 84.3657C587.459 84.3657 588.699 82.2562 588.699 79.6541C588.699 77.052 587.459 74.9425 585.929 74.9425C584.399 74.9425 583.158 77.052 583.158 79.6541C583.158 82.2562 584.399 84.3657 585.929 84.3657Z" stroke="#231F20" stroke-linecap="round" stroke-linejoin="round"/>
</svg>
