<svg width="19" height="21" viewBox="0 0 19 21" fill="none" xmlns="http://www.w3.org/2000/svg">
<path d="M16.1556 8.07781H17.1653C17.4331 8.07781 17.69 8.18419 17.8793 8.37355C18.0687 8.56291 18.1751 8.81974 18.1751 9.08754V19.1848C18.1751 19.4526 18.0687 19.7094 17.8793 19.8988C17.69 20.0881 17.4331 20.1945 17.1653 20.1945H1.00973C0.74193 20.1945 0.485102 20.0881 0.295742 19.8988C0.106382 19.7094 0 19.4526 0 19.1848L0 9.08754C0 8.81974 0.106382 8.56291 0.295742 8.37355C0.485102 8.18419 0.74193 8.07781 1.00973 8.07781H2.01945V7.06808C2.01945 6.13989 2.20227 5.22079 2.55748 4.36325C2.91268 3.50571 3.43331 2.72653 4.08965 2.07019C4.74598 1.41386 5.52516 0.89323 6.3827 0.538026C7.24024 0.182821 8.15934 0 9.08754 0C10.0157 0 10.9348 0.182821 11.7924 0.538026C12.6499 0.89323 13.4291 1.41386 14.0854 2.07019C14.7418 2.72653 15.2624 3.50571 15.6176 4.36325C15.9728 5.22079 16.1556 6.13989 16.1556 7.06808V8.07781ZM2.01945 10.0973L2.01945 18.1751H16.1556V10.0973L2.01945 10.0973ZM8.07781 12.1167H10.0973L10.0973 16.1556H8.07781L8.07781 12.1167ZM14.1362 8.07781V7.06808C14.1362 5.7291 13.6043 4.44496 12.6575 3.49816C11.7107 2.55136 10.4265 2.01945 9.08754 2.01945C7.74856 2.01945 6.46442 2.55136 5.51761 3.49816C4.57081 4.44496 4.03891 5.7291 4.03891 7.06808L4.03891 8.07781H14.1362Z" fill="white"/>
</svg>
