<svg width="16" height="16" viewBox="0 0 16 16" fill="none" xmlns="http://www.w3.org/2000/svg">
<g clip-path="url(#clip0_7_747)">
<path d="M13.9334 15.7457H2.26676C1.34635 15.7457 0.600098 14.9995 0.600098 14.0791V2.41239C0.600098 1.49198 1.34635 0.745728 2.26676 0.745728H13.9334C14.8538 0.745728 15.6001 1.49198 15.6001 2.41239V14.0791C15.6001 14.9995 14.8538 15.7457 13.9334 15.7457Z" fill="#E53935"/>
<path d="M12.6173 9.41194C11.9123 8.67985 9.98642 8.97819 9.52559 9.03235C8.84767 8.38152 8.38643 7.59485 8.22393 7.3236C8.46809 6.59152 8.63059 5.85902 8.65767 5.07277C8.65767 4.39485 8.38642 3.66235 7.62726 3.66235C7.35601 3.66235 7.11184 3.82527 6.97642 4.04194C6.65101 4.61152 6.78642 5.75069 7.30184 6.91652C7.00351 7.75735 6.73226 8.57069 5.97309 10.0082C5.18642 10.3336 3.53226 11.0932 3.39684 11.9065C3.34267 12.1507 3.42392 12.3949 3.61392 12.5844C3.80351 12.7478 4.04726 12.829 4.29142 12.829C5.29476 12.829 6.27101 11.4457 6.94934 10.2799C7.51893 10.0899 8.41392 9.8186 9.30892 9.6561C10.3664 10.5782 11.2885 10.7136 11.7768 10.7136C12.4277 10.7136 12.6718 10.4424 12.7531 10.1982C12.8885 9.92735 12.8073 9.62902 12.6173 9.41194ZM11.9393 9.87277C11.9123 10.0628 11.6681 10.2524 11.2343 10.144C10.7189 10.0086 10.2581 9.76444 9.85101 9.43902C10.2035 9.38485 10.9902 9.3036 11.5598 9.41194C11.7768 9.4661 11.9935 9.60152 11.9393 9.87277ZM7.41017 4.2861C7.46434 4.20485 7.54559 4.15069 7.62726 4.15069C7.87142 4.15069 7.92559 4.44902 7.92559 4.69319C7.89851 5.26277 7.79017 5.83235 7.60017 6.37485C7.19351 5.28944 7.27476 4.53027 7.41017 4.2861ZM7.35601 9.54735C7.57309 9.1136 7.87142 8.35402 7.97976 8.0286C8.22392 8.43527 8.63059 8.9236 8.84767 9.14069C8.84767 9.16777 8.00684 9.33069 7.35601 9.54735ZM5.75601 10.6324C5.13226 11.6628 4.48142 12.314 4.12892 12.314C4.07476 12.314 4.02059 12.2869 3.96601 12.2599C3.88476 12.2057 3.85767 12.1244 3.88476 12.0157C3.96601 11.6357 4.67101 11.1203 5.75601 10.6324Z" fill="white"/>
</g>
<defs>
<clipPath id="clip0_7_747">
<rect width="15" height="15" fill="white" transform="translate(0.600098 0.745728)"/>
</clipPath>
</defs>
</svg>
