<svg width="20" height="23" viewBox="0 0 20 23" fill="none" xmlns="http://www.w3.org/2000/svg">
<path d="M14.2416 15.2307L9.66889 13.885L8.32318 9.31232C8.28834 9.19371 8.21603 9.08958 8.11706 9.0155C8.0181 8.94142 7.8978 8.90139 7.77418 8.90139C7.65056 8.90139 7.53027 8.94142 7.4313 9.0155C7.33234 9.08958 7.26002 9.19371 7.22519 9.31232L5.87891 13.885L1.30621 15.2307C1.1876 15.2656 1.08346 15.3379 1.00938 15.4369C0.935299 15.5358 0.895264 15.6561 0.895264 15.7798C0.895264 15.9034 0.935299 16.0237 1.00938 16.1226C1.08346 16.2216 1.1876 16.2939 1.30621 16.3288L5.87891 17.6745L7.22519 22.2472C7.26004 22.3658 7.33236 22.4699 7.43132 22.544C7.53028 22.618 7.65057 22.6581 7.77418 22.6581C7.89779 22.6581 8.01808 22.618 8.11704 22.544C8.21601 22.4699 8.28833 22.3658 8.32318 22.2472L9.66889 17.6745L14.2416 16.3288C14.3602 16.2939 14.4643 16.2216 14.5384 16.1226C14.6125 16.0237 14.6525 15.9034 14.6525 15.7798C14.6525 15.6561 14.6125 15.5358 14.5384 15.4369C14.4643 15.3379 14.3602 15.2656 14.2416 15.2307ZM9.04608 16.6642C8.95421 16.6912 8.87059 16.7408 8.80289 16.8085C8.7352 16.8762 8.6856 16.9598 8.65866 17.0517L7.77421 20.0578L6.88919 17.0517C6.86225 16.9598 6.81265 16.8762 6.74494 16.8084C6.67724 16.7407 6.5936 16.6911 6.50172 16.6642L3.49612 15.7798L6.50172 14.8953C6.5936 14.8684 6.67724 14.8188 6.74494 14.7511C6.81265 14.6833 6.86225 14.5997 6.88919 14.5078L7.77421 11.5017L8.65866 14.5078C8.6856 14.5997 8.7352 14.6833 8.80289 14.751C8.87059 14.8187 8.95421 14.8684 9.04608 14.8953L12.0517 15.7798L9.04608 16.6642ZM1.59412 4.94647L4.07474 5.6772L4.80548 8.15783C4.84032 8.27644 4.91264 8.38058 5.01161 8.45466C5.11058 8.52873 5.23088 8.56877 5.3545 8.56877C5.47812 8.56877 5.59842 8.52873 5.69739 8.45466C5.79636 8.38058 5.86868 8.27644 5.90352 8.15783L6.63368 5.6772L9.11482 4.94647C9.23343 4.91163 9.33757 4.83932 9.41165 4.74035C9.48572 4.64139 9.52576 4.52109 9.52576 4.39747C9.52576 4.27385 9.48572 4.15356 9.41165 4.05459C9.33757 3.95563 9.23343 3.88331 9.11482 3.84848L6.63368 3.11832L5.90352 0.637118C5.86868 0.518506 5.79636 0.414368 5.69739 0.340289C5.59842 0.266209 5.47812 0.226173 5.3545 0.226173C5.23088 0.226173 5.11058 0.266209 5.01161 0.340289C4.91264 0.414368 4.84032 0.518506 4.80548 0.637118L4.07474 3.11832L1.59412 3.84848C1.47552 3.88333 1.3714 3.95565 1.29733 4.05461C1.22327 4.15357 1.18324 4.27386 1.18324 4.39747C1.18324 4.52108 1.22327 4.64137 1.29733 4.74033C1.3714 4.8393 1.47552 4.91161 1.59412 4.94647ZM4.69756 4.12854C4.78943 4.1016 4.87306 4.05201 4.94076 3.98431C5.00846 3.91662 5.05807 3.833 5.08503 3.74113L5.3545 2.82703L5.6234 3.74113C5.65035 3.833 5.69996 3.91662 5.76766 3.98431C5.83537 4.05201 5.91899 4.1016 6.01086 4.12854L6.92498 4.3975L6.01086 4.66697C5.91899 4.6939 5.83536 4.74349 5.76765 4.81119C5.69995 4.87888 5.65034 4.96251 5.6234 5.05438L5.3545 5.96849L5.08503 5.05438C5.05808 4.96251 5.00848 4.87888 4.94077 4.81119C4.87307 4.74349 4.78944 4.6939 4.69756 4.66697L3.78346 4.3975L4.69756 4.12854ZM19.1626 7.73687L16.6596 6.71599L15.6388 4.21356C15.5958 4.10826 15.5224 4.01815 15.428 3.95471C15.3336 3.89128 15.2225 3.85741 15.1087 3.85741C14.995 3.85741 14.8839 3.89128 14.7895 3.95471C14.6951 4.01815 14.6217 4.10826 14.5787 4.21356L13.5578 6.71599L11.0554 7.73687C10.9501 7.77984 10.86 7.8532 10.7966 7.94759C10.7331 8.04198 10.6993 8.15313 10.6993 8.26686C10.6993 8.38058 10.7331 8.49173 10.7966 8.58613C10.86 8.68052 10.9501 8.75388 11.0554 8.79685L13.5578 9.81772L14.5787 12.3207C14.6217 12.426 14.6951 12.5161 14.7895 12.5796C14.8839 12.643 14.995 12.6769 15.1087 12.6769C15.2225 12.6769 15.3336 12.643 15.428 12.5796C15.5224 12.5161 15.5958 12.426 15.6388 12.3207L16.6596 9.81772L19.1626 8.79685C19.2679 8.75388 19.358 8.68052 19.4214 8.58613C19.4849 8.49174 19.5188 8.38059 19.5188 8.26686C19.5188 8.15313 19.4849 8.04198 19.4214 7.94758C19.358 7.85319 19.2679 7.77983 19.1626 7.73687ZM16.0038 8.84831C15.9333 8.87705 15.8692 8.91959 15.8153 8.97345C15.7615 9.02731 15.7189 9.09139 15.6902 9.16193L15.1087 10.5881L14.5273 9.16193C14.4986 9.09139 14.456 9.02732 14.4021 8.97346C14.3483 8.91961 14.2842 8.87706 14.2136 8.84831L12.788 8.26683L14.2136 7.6854C14.2842 7.65666 14.3483 7.61411 14.4021 7.56025C14.456 7.5064 14.4986 7.44232 14.5273 7.37179L15.1087 5.9461L15.6902 7.37179C15.7189 7.44233 15.7615 7.50641 15.8153 7.56027C15.8692 7.61412 15.9333 7.65667 16.0038 7.6854L17.43 8.26683L16.0038 8.84831Z" fill="#339933"/>
<path d="M4.69756 4.12854C4.78943 4.1016 4.87306 4.05201 4.94076 3.98431C5.00846 3.91662 5.05807 3.833 5.08503 3.74113L5.3545 2.82703L5.6234 3.74113C5.65035 3.833 5.69996 3.91662 5.76766 3.98431C5.83537 4.05201 5.91899 4.1016 6.01086 4.12854L6.92498 4.3975L6.01086 4.66697C5.91899 4.6939 5.83536 4.74349 5.76765 4.81119C5.69995 4.87888 5.65034 4.96251 5.6234 5.05438L5.3545 5.96849L5.08503 5.05438C5.05808 4.96251 5.00848 4.87888 4.94077 4.81119C4.87307 4.74349 4.78944 4.6939 4.69756 4.66697L3.78346 4.3975L4.69756 4.12854Z" fill="#339933"/>
<path d="M16.0038 8.84831C15.9333 8.87705 15.8692 8.91959 15.8153 8.97345C15.7615 9.02731 15.7189 9.09139 15.6902 9.16193L15.1087 10.5881L14.5273 9.16193C14.4986 9.09139 14.456 9.02732 14.4021 8.97346C14.3483 8.91961 14.2842 8.87706 14.2136 8.84831L12.788 8.26683L14.2136 7.6854C14.2842 7.65666 14.3483 7.61411 14.4021 7.56025C14.456 7.5064 14.4986 7.44232 14.5273 7.37179L15.1087 5.9461L15.6902 7.37179C15.7189 7.44233 15.7615 7.50641 15.8153 7.56027C15.8692 7.61412 15.9333 7.65667 16.0038 7.6854L17.43 8.26683L16.0038 8.84831Z" fill="#339933"/>
<path d="M9.04608 16.6642C8.95421 16.6912 8.87059 16.7408 8.80289 16.8085C8.7352 16.8762 8.6856 16.9598 8.65866 17.0517L7.77421 20.0578L6.88919 17.0517C6.86225 16.9598 6.81265 16.8762 6.74494 16.8084C6.67724 16.7407 6.5936 16.6911 6.50172 16.6642L3.49612 15.7798L6.50172 14.8953C6.5936 14.8684 6.67724 14.8188 6.74494 14.7511C6.81265 14.6833 6.86225 14.5997 6.88919 14.5078L7.77421 11.5017L8.65866 14.5078C8.6856 14.5997 8.7352 14.6833 8.80289 14.751C8.87059 14.8187 8.95421 14.8684 9.04608 14.8953L12.0517 15.7798L9.04608 16.6642Z" fill="#339933"/>
</svg>
